<?xml version="1.0" encoding="utf-8"?><svg xmlns="http://www.w3.org/2000/svg" xmlns:xlink="http://www.w3.org/1999/xlink"><symbol viewBox="0 0 900.01 1013.99" id="about_bg_left" xmlns="http://www.w3.org/2000/svg"><path fill-rule="evenodd" clip-rule="evenodd" d="M.01 0l899.997 159.008v854.979H0L.01 0z"/></symbol><symbol viewBox="0 0 900.33 1009.99" id="about_bg_right" xmlns="http://www.w3.org/2000/svg"><path fill-rule="evenodd" clip-rule="evenodd" d="M0 155.008L900.331 0l-.005 1009.986H0V155.008z"/></symbol><symbol viewBox="0 0 25.38 16.16" id="arrow_down" xmlns="http://www.w3.org/2000/svg"><path d="M13.293 15.871a.99.99 0 01-1.406 0L.293 4.293a1.009 1.009 0 010-1.422L2.887.293a.99.99 0 011.406 0L12.59 8.59 20.887.293a.99.99 0 011.406 0l2.594 2.578a1.009 1.009 0 010 1.422L13.293 15.871z"/></symbol><symbol viewBox="0 0 2032 360.37" id="bg" xmlns="http://www.w3.org/2000/svg"><path fill-rule="evenodd" clip-rule="evenodd" d="M2032 360.368V0L1016 173 0 0v360.368z"/></symbol><symbol viewBox="0 0 18.38 14.14" id="check" xmlns="http://www.w3.org/2000/svg"><path d="M17.836 3.516L9.352 12l-1.594 1.594a1.136 1.136 0 01-1.594 0L4.57 12 .328 7.758a1.136 1.136 0 010-1.594L1.922 4.57a1.136 1.136 0 011.594 0l3.445 3.457L14.649.328a1.132 1.132 0 011.593 0l1.594 1.594a1.136 1.136 0 010 1.594z"/></symbol><symbol viewBox="0 0 22.01 17.3" id="envelope" xmlns="http://www.w3.org/2000/svg"><path d="M19.911 5.331c-1.916 1.327-3.845 2.653-5.748 3.992-.799.553-2.15 1.683-3.145 1.683h-.025c-.995 0-2.346-1.13-3.145-1.683-1.903-1.339-3.831-2.665-5.735-3.992C1.241 4.741 0 3.354 0 2.235 0 1.032.651 0 1.965 0h18.082c1.068 0 1.965.884 1.965 1.965 0 1.376-1.02 2.617-2.101 3.366zm2.101 9.999c0 1.08-.885 1.965-1.965 1.965H1.965A1.971 1.971 0 010 15.33V5.577c.369.405.786.762 1.241 1.069 2.039 1.388 4.103 2.776 6.104 4.237 1.032.762 2.31 1.695 3.648 1.695h.025c1.339 0 2.616-.934 3.647-1.695 2.003-1.449 4.066-2.85 6.117-4.237a7.28 7.28 0 001.229-1.069v9.753z"/></symbol><symbol viewBox="0 0 23 16.39" id="envelope2" xmlns="http://www.w3.org/2000/svg"><path d="M22.632 14.851l-6.476-7.022 6.48-6.493a.213.213 0 01.364.149v13.22c0 .195-.238.288-.368.146zm-9.892-3.603a1.976 1.976 0 01-1.402.582h-.016c-.535 0-1.05-.212-1.429-.591L7.975 9.323l-6.587 6.705a.213.213 0 00.151.362h20a.213.213 0 00.158-.357l-6.596-7.149-2.361 2.364zm-1.42-.906a.536.536 0 00.377-.156L21.502.364a.213.213 0 00-.15-.364H1.258a.212.212 0 00-.15.363l9.838 9.821a.52.52 0 00.374.158zM0 1.876v12.918c0 .19.231.285.365.148L6.92 8.271.363 1.726a.213.213 0 00-.363.15z"/></symbol><symbol viewBox="1138.75 328.75 45 45" id="envelope_n" xmlns="http://www.w3.org/2000/svg"><path d="M1161.25 328.75c-12.427 0-22.5 10.073-22.5 22.5s10.073 22.5 22.5 22.5 22.5-10.073 22.5-22.5-10.073-22.5-22.5-22.5zm-13.281 17.604l7.269 4.442-7.269 9.138v-13.58zm.83 14.541l7.51-9.443 4.926 3.012 4.918-3.028 7.518 9.46h-24.872zm25.732-.921l-7.311-9.197 7.311-4.502v13.699zm0-15.163L1161.234 353l-13.265-8.106v-2.208h26.563v2.125z"/></symbol><symbol viewBox="0 0 26 22" id="gh" xmlns="http://www.w3.org/2000/svg"><path d="M25.047 17.422C22.984 21.594 17.313 22 13.25 22 9.125 22 3.109 21.641.969 17.422.172 15.844 0 13.984 0 12.25c0-2.281.625-4.438 2.125-6.188a8.585 8.585 0 01-.422-2.656c0-1.172.266-2.343.797-3.406 2.469 0 4.047 1.078 5.922 2.547A20.895 20.895 0 0113.25 2c1.469 0 2.953.156 4.375.5C19.484 1.047 21.063 0 23.5 0a7.629 7.629 0 01.797 3.406c0 .891-.141 1.781-.422 2.625C25.375 7.797 26 9.969 26 12.25c0 1.734-.172 3.578-.953 5.172zM18.5 10.5c-1.031 0-2.016.188-3.047.328-.812.125-1.625.172-2.453.172s-1.641-.047-2.453-.172c-1.016-.14-2.016-.328-3.047-.328-2.547 0-4 2.109-4 4.5 0 4.781 4.375 5.516 8.188 5.516h2.625c3.813 0 8.188-.734 8.188-5.516-.001-2.391-1.454-4.5-4.001-4.5zM8 18c-1.406 0-2-1.859-2-3s.594-3 2-3 2 1.859 2 3-.594 3-2 3zm10 0c-1.406 0-2-1.859-2-3s.594-3 2-3 2 1.859 2 3-.594 3-2 3z"/></symbol><symbol viewBox="0 0 50 50" id="github_round" xmlns="http://www.w3.org/2000/svg"><path d="M30.5 24.5c-1.031 0-2.016.188-3.047.328-.812.125-1.625.172-2.453.172s-1.641-.047-2.453-.172c-1.016-.14-2.016-.328-3.047-.328-2.547 0-4 2.109-4 4.5 0 4.781 4.375 5.516 8.188 5.516h2.625c3.813 0 8.188-.734 8.188-5.516-.001-2.391-1.454-4.5-4.001-4.5zM20 32c-1.406 0-2-1.859-2-3s.594-3 2-3 2 1.859 2 3-.594 3-2 3zm10 0c-1.406 0-2-1.859-2-3s.594-3 2-3 2 1.859 2 3-.594 3-2 3z"/><path d="M25 0C11.192 0 0 11.193 0 25s11.192 25 25 25 25-11.193 25-25S38.808 0 25 0zm12.047 31.422C34.984 35.594 29.313 36 25.25 36c-4.125 0-10.141-.359-12.281-4.578-.797-1.578-.969-3.438-.969-5.172 0-2.281.625-4.438 2.125-6.188a8.59 8.59 0 01-.422-2.656c0-1.172.266-2.344.797-3.406 2.469 0 4.047 1.078 5.922 2.547A20.895 20.895 0 0125.25 16c1.469 0 2.953.156 4.375.5 1.859-1.453 3.438-2.5 5.875-2.5a7.629 7.629 0 01.797 3.406c0 .891-.141 1.781-.422 2.625C37.375 21.797 38 23.969 38 26.25c0 1.734-.172 3.578-.953 5.172z"/></symbol><symbol viewBox="0 0 40 35" id="hamburger" xmlns="http://www.w3.org/2000/svg"><path d="M40 2.5A2.5 2.5 0 0137.5 5h-35a2.5 2.5 0 110-5h35A2.5 2.5 0 0140 2.5zm0 15a2.5 2.5 0 01-2.5 2.5h-35a2.5 2.5 0 110-5h35a2.5 2.5 0 012.5 2.5zm0 15a2.5 2.5 0 01-2.5 2.5h-35a2.5 2.5 0 110-5h35a2.5 2.5 0 012.5 2.5z"/></symbol><symbol viewBox="0 0 24 22.94" id="in" xmlns="http://www.w3.org/2000/svg"><path d="M2.875 5.344h-.031C1.109 5.344 0 4.156 0 2.672 0 1.156 1.156 0 2.906 0c1.766 0 2.859 1.156 2.875 2.672.016 1.484-1.109 2.672-2.906 2.672zm2.578 17.594H.297V7.453h5.156v15.485zm18.547 0h-5.141v-8.281c0-2.078-.75-3.5-2.609-3.5-1.422 0-2.266.953-2.641 1.875-.125.344-.172.797-.172 1.266v8.641h-5.14c.063-14.031 0-15.484 0-15.484h5.141v2.25h-.031c.672-1.063 1.891-2.609 4.672-2.609 3.391 0 5.922 2.219 5.922 6.969v8.873z"/></symbol><symbol viewBox="0 0 50 50" id="in_round" xmlns="http://www.w3.org/2000/svg"><path d="M25 0C11.192 0 0 11.193 0 25s11.192 25 25 25 25-11.193 25-25S38.808 0 25 0zm-5.547 34.136h-5.156V18.651h5.156v15.485zm-2.578-17.594h-.031C15.11 16.542 14 15.354 14 13.87c0-1.516 1.156-2.672 2.906-2.672 1.766 0 2.859 1.156 2.875 2.672.016 1.484-1.109 2.672-2.906 2.672zM38 34.136h-5.141v-8.281c0-2.078-.75-3.5-2.609-3.5-1.422 0-2.266.953-2.641 1.875-.125.344-.172.797-.172 1.266v8.641h-5.141c.063-14.031 0-15.484 0-15.484h5.141v2.204c.678-1.061 1.898-2.563 4.641-2.563 3.391 0 5.922 2.219 5.922 6.969v8.873z"/></symbol><symbol viewBox="0 0 19.13 19.13" id="link" xmlns="http://www.w3.org/2000/svg"><path d="M18.129 16.441l-1.723 1.711a3.35 3.35 0 01-2.379.973 3.335 3.335 0 01-2.391-.996l-2.414-2.426a3.353 3.353 0 01-.972-2.379 3.43 3.43 0 011.031-2.449L8.25 9.844a3.407 3.407 0 01-2.438 1.031 3.392 3.392 0 01-2.391-.984L.984 7.453A3.34 3.34 0 010 5.063c0-.891.363-1.758.996-2.379L2.719.973A3.35 3.35 0 015.098 0C6 0 6.855.352 7.488.996l2.414 2.426a3.35 3.35 0 01.973 2.379A3.43 3.43 0 019.844 8.25l1.031 1.031a3.407 3.407 0 012.438-1.031c.891 0 1.758.352 2.391.984l2.438 2.438c.645.645.984 1.488.984 2.391a3.356 3.356 0 01-.997 2.378zM8.309 5.004L5.895 2.578c-.211-.211-.504-.328-.797-.328s-.586.117-.797.316L2.578 4.277a1.116 1.116 0 000 1.583l2.438 2.438c.211.21.504.315.797.315.34 0 .609-.117.844-.363-.387-.387-.844-.715-.844-1.312 0-.621.504-1.125 1.125-1.125.598 0 .926.457 1.313.844.246-.234.387-.504.387-.855a1.142 1.142 0 00-.329-.798zm8.238 8.262l-2.438-2.438a1.136 1.136 0 00-1.641.047c.387.387.844.715.844 1.313 0 .621-.504 1.125-1.125 1.125-.598 0-.926-.457-1.313-.844-.246.234-.387.504-.387.855 0 .293.117.586.328.797l2.414 2.426c.211.211.504.316.797.316s.586-.105.797-.305l1.723-1.711c.211-.211.328-.492.328-.785a1.11 1.11 0 00-.327-.796z"/></symbol><symbol viewBox="0 0 14.14 15.44" id="login" xmlns="http://www.w3.org/2000/svg"><path d="M11.456 15.422H2.681C1.084 15.422 0 14.448 0 12.821c0-2.269.532-5.753 3.474-5.753.312 0 1.627 1.396 3.595 1.396s3.283-1.396 3.595-1.396c2.941 0 3.474 3.484 3.474 5.753-.001 1.627-1.085 2.601-2.682 2.601zM7.068 7.711A3.856 3.856 0 117.069 0a3.856 3.856 0 01-.001 7.711z"/></symbol><symbol viewBox="0 0 15.15 21.65" id="map_marker" xmlns="http://www.w3.org/2000/svg"><path d="M11.004 7.835a3.425 3.425 0 00-3.43-3.414c-1.889 0-3.431 1.531-3.431 3.414a3.432 3.432 0 006.861 0z"/><path d="M7.574 21.654l1.388-1.817c1.455-1.925 6.189-8.469 6.189-12.049C15.151 3.132 12.106 0 7.574 0 3.045 0 0 3.132 0 7.788c0 3.854 5.56 11.223 6.192 12.049l1.382 1.817zM2.792 7.835c0-2.628 2.146-4.77 4.782-4.77 2.64 0 4.785 2.142 4.785 4.77 0 2.63-2.146 4.771-4.785 4.771-2.636-.001-4.782-2.141-4.782-4.771z"/></symbol><symbol viewBox="333.75 72.532 45 45" id="map_n" xmlns="http://www.w3.org/2000/svg"><circle cx="356.342" cy="92.018" r="5.854"/><path d="M356.25 72.532c-12.427 0-22.5 10.073-22.5 22.5s10.073 22.5 22.5 22.5 22.5-10.073 22.5-22.5-10.073-22.5-22.5-22.5zm0 37.882c-1.438-1.127-11.252-9.062-11.252-17.422 0-6.203 4.98-11.24 11.16-11.339v-.004l.092.001.092-.001v.004c6.18.099 11.16 5.136 11.16 11.339 0 8.36-9.814 16.295-11.252 17.422z"/></symbol><symbol viewBox="0 0 16.9 15.99" id="password" xmlns="http://www.w3.org/2000/svg"><path d="M15.743 12.078c-.261 0-1.074-.943-1.285-1.154l-.964.964 2.209 2.209a.973.973 0 01.281.683c0 .563-.643 1.205-1.205 1.205a.978.978 0 01-.683-.281L7.359 8.966c-1.054.783-2.339 1.315-3.664 1.315C1.506 10.281 0 8.765 0 6.586 0 3.293 3.293 0 6.586 0c2.18 0 3.695 1.506 3.695 3.695 0 1.325-.532 2.61-1.315 3.665l3.564 3.564.964-.964c-.211-.211-1.154-1.024-1.154-1.285 0-.231.924-1.155 1.154-1.155.08 0 .171.041.23.101.372.372 3.173 3.012 3.173 3.303 0 .23-.923 1.154-1.154 1.154zM6.426 1.928a1.928 1.928 0 00-1.928 1.928c0 .291.07.572.19.833a1.973 1.973 0 00-.833-.191 1.928 1.928 0 101.928 1.928c0-.291-.07-.572-.19-.833.261.121.542.191.833.191a1.928 1.928 0 000-3.856z"/></symbol><symbol viewBox="0 0 18.86 18.86" id="phone" xmlns="http://www.w3.org/2000/svg"><path d="M18.448 16.76c-.281.656-1.031 1.086-1.634 1.42-.791.43-1.595.684-2.492.684-1.246 0-2.371-.51-3.51-.924a12.587 12.587 0 01-2.345-1.112c-2.278-1.407-5.024-4.153-6.431-6.431A12.617 12.617 0 01.924 8.052C.509 6.913 0 5.788 0 4.542 0 3.644.254 2.84.683 2.05c.335-.603.764-1.353 1.42-1.634C2.545.214 3.483 0 3.965 0c.095 0 .188 0 .282.04.281.094.576.75.71 1.019.429.764.844 1.541 1.286 2.291.214.349.616.777.616 1.192 0 .817-2.425 2.01-2.425 2.733 0 .361.335.831.522 1.152 1.353 2.438 3.041 4.126 5.479 5.479.322.188.791.522 1.152.522.724 0 1.916-2.425 2.733-2.425.415 0 .844.402 1.192.616.75.442 1.527.857 2.291 1.286.268.134.924.429 1.018.71.041.094.041.188.041.281.002.484-.213 1.422-.414 1.864z"/></symbol><symbol viewBox="0 0 16.56 21.09" id="phone2" xmlns="http://www.w3.org/2000/svg"><path d="M7.858 17.102c-1.523-1.127-3.018-2.677-4.328-4.481C1.832 10.278.647 7.777.196 5.579c-.198-.973-.248-1.863-.141-2.58.113-.76.398-1.327.832-1.643.115-.083.234-.173.359-.27C1.952.544 2.834-.131 3.807.023c.717.114 1.344.65 1.905 1.635.722 1.27.949 2.161.724 2.894-.21.691-.779 1.093-1.38 1.523l-.209.15c-.209.152-.144.666.172 1.374.315.712.881 1.629 1.676 2.727 1.841 2.538 2.724 3.013 3.086 3.069.125.021.188-.012.231-.042.072-.049.142-.102.21-.149.663-.489 1.289-.949 2.133-.814.678.107 1.398.605 2.27 1.563.736.813 1.051 1.548.97 2.244-.116 1.017-1.058 1.662-1.813 2.182-.131.092-.258.178-.372.261-.421.307-1.034.406-1.771.289-1.096-.174-2.441-.822-3.781-1.827z"/><path d="M15.712 20.623c-.261-1.595-1.768-2.657-1.781-2.667a.396.396 0 01-.098-.546.392.392 0 01.546-.103c.07.053 1.792 1.26 2.108 3.188a.388.388 0 01-.446.446.4.4 0 01-.329-.318z"/></symbol><symbol viewBox="338.678 110.5 45 45" id="phone_n" xmlns="http://www.w3.org/2000/svg"><path d="M361.178 110.5c-12.427 0-22.5 10.073-22.5 22.5s10.073 22.5 22.5 22.5 22.5-10.073 22.5-22.5-10.074-22.5-22.5-22.5zm13.433 31.703c-1.034 1.601-1.934 3.261-6.258 3.358-4.418.004-8.989-3.655-12.318-7.307-3.323-3.232-6.396-7.408-6.394-11.457.1-4.324 1.76-5.224 3.36-6.258 0 0 .876-.368 1.639.295.762.663 4.103 4.005 4.103 4.005s1.188.991.369 2.089c-.652.874-2.157 2.484-2.354 2.696l.564 1.063c.755 1.244 2.194 3.43 4.349 5.201 1.453 1.195 3.911 2.506 3.91 2.504.354-.329 1.823-1.689 2.641-2.301 1.098-.82 2.088.367 2.088.367s3.342 3.343 4.006 4.105c.663.764.295 1.64.295 1.64z"/></symbol><symbol viewBox="0 0 43.07 27.44" id="portf_arrow_down" xmlns="http://www.w3.org/2000/svg"><path d="M22.563 26.938a1.68 1.68 0 01-2.387 0L.498 7.286a1.712 1.712 0 010-2.413L4.9.497a1.68 1.68 0 012.387 0l14.082 14.082L35.45.497a1.682 1.682 0 012.388 0l4.401 4.376c.663.663.663 1.75 0 2.413L22.563 26.938z"/></symbol><symbol viewBox="0 0 43.07 27.43" id="portf_arrow_up" xmlns="http://www.w3.org/2000/svg"><path d="M42.239 20.149c.663.662.663 1.75 0 2.413l-4.401 4.376a1.684 1.684 0 01-2.388 0L21.369 12.856 7.287 26.938a1.683 1.683 0 01-2.387 0L.498 22.562a1.712 1.712 0 010-2.413L20.175.498a1.68 1.68 0 012.387 0l19.677 19.651z"/></symbol><symbol viewBox="0 0 24 24" id="skype" xmlns="http://www.w3.org/2000/svg"><path d="M18 24a5.976 5.976 0 01-3.656-1.25c-.75.156-1.547.25-2.344.25-6.078 0-11-4.922-11-11 0-.797.094-1.594.25-2.344A5.976 5.976 0 010 6c0-3.313 2.688-6 6-6 1.375 0 2.641.469 3.656 1.25C10.406 1.094 11.203 1 12 1c6.078 0 11 4.922 11 11 0 .797-.094 1.594-.25 2.344A5.976 5.976 0 0124 18a6 6 0 01-6 6zm-4.531-13.547l-1.625-.375c-1.188-.281-2.078-.484-2.078-1.391 0-.828.875-1.203 2.25-1.203 2.453 0 2.5 1.797 4.016 1.797 1.016 0 1.625-.797 1.625-1.703 0-1.797-2.984-2.969-5.938-2.969-2.703 0-5.844 1.172-5.844 4.344 0 2.625 1.75 3.563 4.031 4.109l2.281.563c1.391.344 2.25.5 2.25 1.5 0 .797-.891 1.406-2.266 1.406-2.891 0-3.047-2.406-4.719-2.406-1.094 0-1.578.781-1.578 1.641 0 1.922 2.938 3.484 6.453 3.484 2.938 0 6-1.469 6-4.641.001-2.718-2.639-3.656-4.858-4.156z"/></symbol><symbol viewBox="0 0 45 45" id="skype_n" xmlns="http://www.w3.org/2000/svg"><path d="M298.473 298.13c-3.38-.838-1.53-3.789 1.209-3.745 2.658.043 4.01 2.907 5.215 2.759 1.208-.149 2.236-1.994.338-3.645-1.643-1.43-3.718-2.218-6.907-1.922-2.502.232-4.878 1.873-5.168 5.074-.29 3.203 3.431 4.829 6.377 5.273 2.064.31 4.88 1.329 3.189 3.299-1.554 1.813-4.493.692-5.266.2-.773-.495-1.644-2.269-3.094-2.17-1.452.097-2.166 2.04-.385 3.744 1.595 1.526 3.334 2.364 7.052 2.167 3.722-.198 7.054-3.546 5.749-6.7-1.303-3.153-4.925-3.496-8.309-4.334z"/><path d="M300 277.5c-12.427 0-22.5 10.073-22.5 22.5 0 12.426 10.073 22.5 22.5 22.5s22.5-10.074 22.5-22.5c0-12.427-10.073-22.5-22.5-22.5zm5.756 35.229a6.915 6.915 0 01-3.688-1.067c-.69.127-1.4.198-2.129.198-6.458 0-11.688-5.282-11.688-11.798 0-.631.049-1.253.145-1.859a7.111 7.111 0 01-1.124-3.853c0-3.909 3.121-7.078 6.975-7.078 1.405 0 2.711.423 3.81 1.149a11.348 11.348 0 011.883-.156c6.455 0 11.688 5.284 11.688 11.799 0 .541-.039 1.075-.109 1.601a7.119 7.119 0 011.212 3.987c0 3.91-3.122 7.077-6.975 7.077z"/></symbol><symbol viewBox="0 0 186.86 110.96" id="stars1" xmlns="http://www.w3.org/2000/svg"><circle cx="70.704" cy="105.783" r="5.182"/><circle cx="5.183" cy="78.269" r="5.183"/><circle cx="121.8" cy="63.519" r="2.848"/><circle cx="48.859" cy="49.678" r="2.848"/><circle cx="33.16" cy="17.826" r="2.848"/><circle cx="87.597" cy="7.948" r="2.848"/><path d="M5.183 78.269l65.521 27.513 51.097-42.263z"/><path d="M33.16 17.825L5.183 78.269l65.521 27.513L88.01 7.825zm15.699 31.852l72.942 13.842"/><circle cx="181.678" cy="93.211" r="5.182"/><circle cx="136.611" cy="5.184" r="5.183"/><circle cx="176.274" cy="27.121" r="2.848"/><circle cx="123.17" cy="79.005" r="2.848"/><circle cx="88.066" cy="73.644" r="2.848"/><circle cx="111.13" cy="23.354" r="2.848"/><path d="M123.17 79.005l58.508 14.205-5.404-66.09z"/><path d="M88.065 73.644l48.546-68.461 45.067 88.027-70.413-70.265zm35.104 5.36l53.105-51.884"/></symbol><symbol viewBox="0 0 171.5 132.5" id="stars2" xmlns="http://www.w3.org/2000/svg"><circle cx="4.25" cy="92.25" r="4.25"/><circle cx="48.25" cy="128.25" r="4.25"/><circle cx="72.75" cy="52.75" r="4.75"/><circle cx="8.25" cy="22.25" r="4.25"/><circle cx="117.25" cy="96.25" r="2.75"/><circle cx="126.25" cy="41.25" r="1.911"/><circle cx="167.25" cy="4.25" r="4.25"/><path d="M72.75 52.75l44.5 43.5-113-4 44 36 69-32 50-92-41 37-53.5 13.084L8.25 22.25m40 109.084L8.5 24.339"/></symbol><symbol viewBox="0 0 103.03 124.03" id="stars3" xmlns="http://www.w3.org/2000/svg"><circle cx="5.182" cy="60.182" r="5.182"/><circle cx="50.182" cy="5.182" r="5.182"/><circle cx="31.182" cy="121.182" r="2.848"/><circle cx="65.182" cy="55.182" r="2.848"/><circle cx="100.182" cy="49.182" r="2.848"/><circle cx="94.182" cy="104.182" r="2.848"/><path d="M50.183 5.182l-45 55 26 61.001z"/><path d="M100.183 49.182l-50-44-45 55 89 44.43zm-35 6l-34 66.001"/></symbol><symbol viewBox="0 0 238.89 238.89" id="telegram_logo" xmlns="http://www.w3.org/2000/svg"><path d="M153.768 80.319c-24.978 15.69-49.925 31.425-74.885 47.139-2.01 1.265-3.101 2.873-2.306 5.315 3.593 11.024 7.191 22.047 10.786 33.07.5-.156.999-.315 1.499-.471.508-4.21 1.619-8.456 1.393-12.624-.417-7.655 2.813-12.654 8.521-17.603 18.473-16.013 36.429-32.621 54.502-49.092 1.763-1.607 4.662-2.638 4.417-5.828-1.457-.869-2.812-.607-3.927.094z"/><path d="M119.446 0C53.478 0 0 53.478 0 119.446c0 65.968 53.478 119.446 119.446 119.446 65.969 0 119.446-53.478 119.446-119.446C238.892 53.478 185.415 0 119.446 0zm57.905 106.34c-4.966 23.363-9.878 46.743-14.941 70.087-2.393 11.035-6.963 12.814-16.078 6.277-9.499-6.81-18.968-13.679-28.177-20.872-3.726-2.911-6.225-2.799-9.403.636-4.322 4.678-8.872 9.194-13.712 13.33-5.623 4.802-9.284 3.637-11.639-3.366-3.895-11.572-7.788-23.15-11.384-34.818-1.222-3.968-3.213-6.233-7.325-7.354-8.188-2.235-16.301-4.803-24.314-7.607-3.746-1.311-9.779-1.084-9.621-6.551.144-4.825 5.655-5.791 9.519-7.293 25.983-10.102 52.008-20.097 78.025-30.12 18.829-7.255 37.63-14.583 56.509-21.704 6.856-2.587 11.2.401 11.275 8.174-2.789 13.149-5.753 27.166-8.734 41.181z"/></symbol><symbol viewBox="0 0 30.88 17.3" id="vk" xmlns="http://www.w3.org/2000/svg"><path d="M27.625 5.832c-3.031 4.031-3.359 3.656-.859 5.984 2.406 2.234 2.906 3.313 2.984 3.453 0 0 1 1.75-1.109 1.766l-4 .063c-.859.172-2-.609-2-.609-1.5-1.031-2.906-3.703-4-3.359 0 0-1.125.359-1.094 2.766.016.516-.234.797-.234.797s-.281.297-.828.344h-1.797c-3.953.25-7.438-3.391-7.438-3.391S3.437 9.707.093 1.848c-.219-.516.016-.766.016-.766S.343.785 1 .785L5.281.754c.406.063.688.281.688.281s.25.172.375.5c.703 1.75 1.609 3.344 1.609 3.344 1.563 3.219 2.625 3.766 3.234 3.438 0 0 .797-.484.625-4.375-.063-1.406-.453-2.047-.453-2.047-.359-.485-1.031-.625-1.328-.672-.234-.031.156-.594.672-.844.766-.375 2.125-.391 3.734-.375 1.266.016 1.625.094 2.109.203 1.484.359.984 1.734.984 5.047 0 1.063-.203 2.547.563 3.031.328.219 1.141.031 3.141-3.375 0 0 .938-1.625 1.672-3.516.125-.344.391-.484.391-.484s.25-.141.594-.094l4.5-.031c1.359-.172 1.578.453 1.578.453.234.641-.501 2.141-2.344 4.594z"/></symbol><symbol viewBox="0 0 50 50" id="vk_round" xmlns="http://www.w3.org/2000/svg"><path d="M25 0C11.193 0 0 11.193 0 25s11.193 25 25 25 25-11.193 25-25S38.807 0 25 0zm11.76 28.255c2.406 2.234 2.906 3.313 2.984 3.453 0 0 1 1.75-1.109 1.766l-4 .063c-.859.172-2-.609-2-.609-1.5-1.031-2.906-3.703-4-3.359 0 0-1.125.359-1.094 2.766.016.516-.234.797-.234.797s-.281.297-.828.344h-1.797c-3.953.25-7.438-3.391-7.438-3.391s-3.813-3.938-7.156-11.797c-.219-.516.016-.766.016-.766s.234-.297.891-.297l4.281-.031c.406.063.688.281.688.281s.25.172.375.5c.703 1.75 1.609 3.344 1.609 3.344 1.563 3.219 2.625 3.766 3.234 3.438 0 0 .797-.484.625-4.375-.063-1.406-.453-2.047-.453-2.047-.359-.484-1.031-.625-1.328-.672-.234-.031.156-.594.672-.844.766-.375 2.125-.391 3.734-.375 1.266.016 1.625.094 2.109.203 1.484.359.984 1.734.984 5.047 0 1.063-.203 2.547.563 3.031.328.219 1.141.031 3.141-3.375 0 0 .938-1.625 1.672-3.516.125-.344.391-.484.391-.484s.25-.141.594-.094l4.5-.031c1.359-.172 1.578.453 1.578.453.234.641-.5 2.141-2.344 4.594-3.032 4.03-3.36 3.655-.86 5.983z"/></symbol></svg>